<?xml version="1.0" encoding="UTF-8" standalone="no"?>
<svg
   xmlns:dc="http://purl.org/dc/elements/1.1/"
   xmlns:cc="http://creativecommons.org/ns#"
   xmlns:rdf="http://www.w3.org/1999/02/22-rdf-syntax-ns#"
   xmlns:svg="http://www.w3.org/2000/svg"
   xmlns="http://www.w3.org/2000/svg"
   viewBox="0 0 289.50668 122.05333"
   height="122.05333"
   width="289.50668"
   xml:space="preserve"
   id="svg2"
   version="1.1"><metadata
     id="metadata8"><rdf:RDF><cc:Work
         rdf:about=""><dc:format>image/svg+xml</dc:format><dc:type
           rdf:resource="http://purl.org/dc/dcmitype/StillImage" /></cc:Work></rdf:RDF></metadata><defs
     id="defs6" /><g
     transform="matrix(1.3333333,0,0,-1.3333333,0,122.05333)"
     id="g10"><g
       transform="scale(0.1)"
       id="g12"><path
         id="path14"
         style="fill:#ffffff;fill-opacity:1;fill-rule:nonzero;stroke:none"
         d="M 642.441,644.656 583.262,781.473 522.324,644.656 Z m 9.961,-21.679 H 512.07 l -16.699,-38.672 c -5.469,-12.887 -8.203,-23.539 -8.203,-31.93 0,-11.137 4.492,-19.34 13.477,-24.613 5.273,-3.125 18.261,-5.465 38.964,-7.032 V 509.891 H 407.48 v 10.839 c 14.254,2.153 25.973,8.059 35.157,17.727 9.179,9.668 20.508,29.633 33.984,59.91 l 142.09,316.992 h 5.566 L 767.539,589.582 c 13.668,-30.867 24.902,-50.297 33.691,-58.305 6.637,-6.054 16.012,-9.566 28.125,-10.547 V 509.891 H 637.168 v 10.839 h 7.91 c 15.426,0 26.266,2.153 32.52,6.446 4.293,3.121 6.445,7.621 6.445,13.476 0,3.52 -0.586,7.129 -1.758,10.84 -0.394,1.762 -3.324,9.082 -8.789,21.973 l -21.094,49.512" /><path
         id="path16"
         style="fill:#ffffff;fill-opacity:1;fill-rule:nonzero;stroke:none"
         d="M 1091.82,520.73 V 509.891 H 884.105 v 10.839 h 13.184 c 11.524,0 20.801,2.051 27.832,6.153 5.078,2.734 8.981,7.422 11.719,14.062 2.148,4.688 3.223,16.993 3.223,36.914 v 261.329 c 0,20.312 -1.075,33.003 -3.223,38.085 -2.152,5.079 -6.492,9.524 -13.035,13.332 -6.547,3.809 -15.383,5.711 -26.516,5.711 h -13.184 v 10.84 h 207.715 v -10.84 h -13.18 c -11.53,0 -20.8,-2.05 -27.83,-6.152 -5.09,-2.738 -9.09,-7.426 -12.02,-14.062 -2.15,-4.688 -3.22,-16.993 -3.22,-36.914 V 577.859 c 0,-20.316 1.12,-33.007 3.37,-38.086 2.24,-5.082 6.64,-9.519 13.18,-13.328 6.55,-3.808 15.38,-5.715 26.52,-5.715 h 13.18" /><path
         id="path18"
         style="fill:#ffffff;fill-opacity:1;fill-rule:nonzero;stroke:none"
         d="m 1306.53,884.305 v -163.18 h 11.43 c 17.58,0 31.93,2.633 43.07,7.906 11.13,5.274 20.55,14.16 28.27,26.66 7.71,12.497 12.74,29.399 15.08,50.688 h 10.26 V 606.863 h -10.26 c -3.71,37.692 -13.81,62.551 -30.32,74.563 -16.51,12.012 -35.2,18.015 -56.1,18.015 h -11.43 V 577.859 c 0,-20.316 1.13,-33.007 3.37,-38.086 2.24,-5.082 6.64,-9.519 13.19,-13.328 6.54,-3.808 15.38,-5.715 26.51,-5.715 h 13.18 v -10.839 h -207.71 v 10.839 h 13.18 c 11.53,0 20.8,2.051 27.83,6.153 5.08,2.734 8.98,7.422 11.72,14.062 2.15,4.688 3.23,16.993 3.23,36.914 v 261.329 c 0,20.312 -1.08,33.003 -3.23,38.085 -2.15,5.079 -6.49,9.524 -13.03,13.332 -6.55,3.809 -15.39,5.711 -26.52,5.711 h -13.18 v 10.84 h 335.15 V 793.191 h -12.01 c -2.74,26.758 -9.71,46.582 -20.94,59.473 -11.24,12.891 -27.5,21.973 -48.78,27.246 -11.72,2.93 -33.4,4.395 -65.04,4.395 h -36.92" /><path
         id="path20"
         style="fill:#ffffff;fill-opacity:1;fill-rule:nonzero;stroke:none"
         d="M 1763.82,520.73 V 509.891 H 1556.1 v 10.839 h 13.19 c 11.52,0 20.8,2.051 27.83,6.153 5.08,2.734 8.98,7.422 11.72,14.062 2.15,4.688 3.22,16.993 3.22,36.914 v 261.329 c 0,20.312 -1.07,33.003 -3.22,38.085 -2.15,5.079 -6.5,9.524 -13.04,13.332 -6.54,3.809 -15.38,5.711 -26.51,5.711 h -13.19 v 10.84 h 207.72 v -10.84 h -13.19 c -11.52,0 -20.8,-2.05 -27.83,-6.152 -5.08,-2.738 -9.08,-7.426 -12.01,-14.062 -2.15,-4.688 -3.22,-16.993 -3.22,-36.914 V 577.859 c 0,-20.316 1.12,-33.007 3.37,-38.086 2.24,-5.082 6.64,-9.519 13.18,-13.328 6.54,-3.808 15.38,-5.715 26.51,-5.715 h 13.19" /><path
         id="path22"
         style="fill:none;stroke:#ffffff;stroke-width:10;stroke-linecap:butt;stroke-linejoin:miter;stroke-miterlimit:4;stroke-dasharray:none;stroke-opacity:1"
         d="M 0,378.855 H 2171.3" /><path
         id="path24"
         style="fill:#ffffff;fill-opacity:1;fill-rule:nonzero;stroke:none"
         d="M 83.5781,196.617 71.7422,223.98 59.5547,196.617 Z m 1.9922,-4.336 H 57.5039 l -3.3398,-7.734 c -1.0938,-2.578 -1.6407,-4.707 -1.6407,-6.387 0,-2.226 0.8985,-3.867 2.6954,-4.922 1.0546,-0.625 3.6523,-1.093 7.7929,-1.406 v -2.168 H 36.5859 v 2.168 c 2.8516,0.43 5.1954,1.609 7.0313,3.543 1.8359,1.934 4.1016,5.93 6.7969,11.984 l 28.4179,63.399 h 1.1133 l 28.6527,-65.156 c 2.734,-6.172 4.98,-10.059 6.738,-11.661 1.328,-1.211 3.203,-1.914 5.625,-2.109 v -2.168 H 82.5234 v 2.168 h 1.5821 c 3.0859,0 5.2539,0.43 6.5039,1.289 0.8594,0.625 1.289,1.524 1.289,2.695 0,0.704 -0.1171,1.426 -0.3515,2.168 -0.0781,0.352 -0.6641,1.817 -1.7578,4.395 l -4.2188,9.902" /><path
         id="path26"
         style="fill:#ffffff;fill-opacity:1;fill-rule:nonzero;stroke:none"
         d="m 160.98,225.973 0.879,-18.692 h -1.992 c -2.383,5.547 -4.851,9.336 -7.41,11.367 -2.559,2.032 -5.109,3.047 -7.648,3.047 -1.602,0 -2.969,-0.539 -4.102,-1.613 -1.133,-1.074 -1.699,-2.312 -1.699,-3.719 0,-1.054 0.39,-2.07 1.172,-3.047 1.25,-1.601 4.746,-4.347 10.488,-8.234 5.742,-3.887 9.523,-7.187 11.34,-9.902 1.816,-2.715 2.722,-5.75 2.722,-9.11 0,-3.047 -0.761,-6.035 -2.285,-8.965 -1.523,-2.929 -3.672,-5.175 -6.445,-6.738 -2.773,-1.562 -5.84,-2.344 -9.199,-2.344 -2.617,0 -6.113,0.821 -10.488,2.461 -1.172,0.43 -1.973,0.645 -2.403,0.645 -1.289,0 -2.363,-0.977 -3.222,-2.93 h -1.934 l -0.938,19.688 h 1.993 c 1.757,-5.157 4.171,-9.024 7.238,-11.602 3.066,-2.578 5.965,-3.867 8.699,-3.867 1.875,0 3.41,0.574 4.602,1.727 1.191,1.152 1.785,2.55 1.785,4.191 0,1.875 -0.586,3.496 -1.758,4.863 -1.172,1.367 -3.789,3.438 -7.852,6.211 -5.976,4.141 -9.843,7.305 -11.601,9.492 -2.578,3.203 -3.867,6.739 -3.867,10.606 0,4.219 1.457,8.035 4.367,11.453 2.91,3.418 7.117,5.129 12.625,5.129 2.969,0 5.84,-0.723 8.613,-2.168 1.055,-0.586 1.914,-0.879 2.578,-0.879 0.703,0 1.27,0.145 1.7,0.437 0.429,0.293 1.113,1.125 2.05,2.493 h 1.992" /><path
         id="path28"
         style="fill:#ffffff;fill-opacity:1;fill-rule:nonzero;stroke:none"
         d="m 207.68,225.973 0.879,-18.692 h -1.993 c -2.382,5.547 -4.851,9.336 -7.41,11.367 -2.558,2.032 -5.109,3.047 -7.648,3.047 -1.602,0 -2.969,-0.539 -4.102,-1.613 -1.133,-1.074 -1.699,-2.312 -1.699,-3.719 0,-1.054 0.391,-2.07 1.172,-3.047 1.25,-1.601 4.746,-4.347 10.488,-8.234 5.742,-3.887 9.524,-7.187 11.34,-9.902 1.816,-2.715 2.723,-5.75 2.723,-9.11 0,-3.047 -0.762,-6.035 -2.285,-8.965 -1.524,-2.929 -3.672,-5.175 -6.446,-6.738 -2.773,-1.562 -5.84,-2.344 -9.199,-2.344 -2.617,0 -6.113,0.821 -10.488,2.461 -1.172,0.43 -1.973,0.645 -2.403,0.645 -1.289,0 -2.363,-0.977 -3.222,-2.93 h -1.934 l -0.937,19.688 h 1.992 c 1.758,-5.157 4.172,-9.024 7.238,-11.602 3.067,-2.578 5.965,-3.867 8.699,-3.867 1.875,0 3.41,0.574 4.602,1.727 1.191,1.152 1.785,2.55 1.785,4.191 0,1.875 -0.586,3.496 -1.758,4.863 -1.172,1.367 -3.789,3.438 -7.851,6.211 -5.977,4.141 -9.844,7.305 -11.602,9.492 -2.578,3.203 -3.867,6.739 -3.867,10.606 0,4.219 1.457,8.035 4.367,11.453 2.91,3.418 7.117,5.129 12.625,5.129 2.969,0 5.84,-0.723 8.613,-2.168 1.055,-0.586 1.914,-0.879 2.579,-0.879 0.703,0 1.269,0.145 1.699,0.437 0.429,0.293 1.113,1.125 2.051,2.493 h 1.992" /><path
         id="path30"
         style="fill:#ffffff;fill-opacity:1;fill-rule:nonzero;stroke:none"
         d="m 245.824,221.93 c -1.992,0 -3.699,-0.754 -5.125,-2.258 -1.426,-1.504 -2.363,-4.473 -2.812,-8.906 -0.449,-4.434 -0.676,-10.594 -0.676,-18.485 0,-4.179 0.273,-8.086 0.82,-11.718 0.43,-2.774 1.348,-4.883 2.754,-6.329 1.406,-1.445 3.008,-2.168 4.805,-2.168 1.758,0 3.223,0.489 4.394,1.465 1.524,1.328 2.539,3.184 3.047,5.567 0.782,3.711 1.172,11.211 1.172,22.5 0,6.64 -0.371,11.199 -1.113,13.679 -0.742,2.481 -1.836,4.289 -3.281,5.422 -1.016,0.821 -2.344,1.231 -3.985,1.231 z m -0.234,4.16 c 4.765,0 9.199,-1.231 13.301,-3.692 4.101,-2.46 7.218,-5.957 9.347,-10.488 2.129,-4.531 3.192,-9.492 3.192,-14.883 0,-7.773 -1.973,-14.277 -5.918,-19.511 -4.766,-6.328 -11.348,-9.493 -19.746,-9.493 -8.243,0 -14.59,2.891 -19.043,8.672 -4.453,5.782 -6.68,12.481 -6.68,20.098 0,7.852 2.277,14.695 6.828,20.535 4.551,5.84 10.789,8.762 18.719,8.762" /><path
         id="path32"
         style="fill:#ffffff;fill-opacity:1;fill-rule:nonzero;stroke:none"
         d="m 324.457,183.785 1.816,-1.406 c -2.578,-4.844 -5.789,-8.449 -9.636,-10.813 -3.848,-2.363 -7.942,-3.543 -12.278,-3.543 -7.304,0 -13.144,2.754 -17.519,8.262 -4.375,5.508 -6.563,12.129 -6.563,19.863 0,7.461 1.993,14.024 5.977,19.688 4.805,6.836 11.426,10.254 19.863,10.254 5.664,0 10.168,-1.426 13.508,-4.277 3.34,-2.852 5.008,-6.036 5.008,-9.551 0,-2.227 -0.672,-4.004 -2.02,-5.332 -1.347,-1.328 -3.117,-1.992 -5.304,-1.992 -2.305,0 -4.207,0.761 -5.711,2.285 -1.504,1.523 -2.434,4.238 -2.785,8.144 -0.235,2.461 -0.801,4.18 -1.7,5.156 -0.898,0.977 -1.953,1.465 -3.164,1.465 -1.875,0 -3.476,-0.996 -4.804,-2.988 -2.032,-3.008 -3.047,-7.617 -3.047,-13.828 0,-5.156 0.82,-10.09 2.461,-14.797 1.64,-4.707 3.886,-8.211 6.738,-10.516 2.148,-1.679 4.687,-2.519 7.617,-2.519 1.914,0 3.731,0.449 5.449,1.348 1.719,0.898 3.75,2.597 6.094,5.097" /><path
         id="path34"
         style="fill:#ffffff;fill-opacity:1;fill-rule:nonzero;stroke:none"
         d="m 346.195,250.992 c 2.539,0 4.688,-0.89 6.446,-2.668 1.757,-1.777 2.636,-3.914 2.636,-6.414 0,-2.5 -0.886,-4.629 -2.664,-6.387 -1.777,-1.757 -3.918,-2.636 -6.418,-2.636 -2.5,0 -4.629,0.879 -6.386,2.636 -1.758,1.758 -2.637,3.887 -2.637,6.387 0,2.5 0.879,4.637 2.637,6.414 1.757,1.778 3.886,2.668 6.386,2.668 z m 8.203,-26.543 v -43.418 c 0,-3.867 0.45,-6.34 1.348,-7.414 0.899,-1.074 2.656,-1.687 5.274,-1.844 v -2.109 h -29.59 v 2.109 c 2.422,0.079 4.218,0.782 5.39,2.11 0.782,0.898 1.172,3.281 1.172,7.148 v 31.992 c 0,3.868 -0.449,6.336 -1.347,7.411 -0.899,1.074 -2.637,1.691 -5.215,1.847 v 2.168 h 22.968" /><path
         id="path36"
         style="fill:#ffffff;fill-opacity:1;fill-rule:nonzero;stroke:none"
         d="m 396.586,182.027 v 18.34 c -4.727,-2.773 -8.242,-5.742 -10.547,-8.906 -1.523,-2.109 -2.285,-4.238 -2.285,-6.387 0,-1.797 0.644,-3.379 1.934,-4.746 0.976,-1.055 2.343,-1.582 4.101,-1.582 1.953,0 4.219,1.094 6.797,3.281 z m 0,-4.277 c -6.68,-5.898 -12.676,-8.848 -17.988,-8.848 -3.125,0 -5.723,1.024 -7.793,3.075 -2.071,2.05 -3.106,4.621 -3.106,7.707 0,4.179 1.797,7.937 5.391,11.277 3.594,3.34 11.426,7.785 23.496,13.332 v 5.508 c 0,4.14 -0.223,6.746 -0.672,7.82 -0.449,1.074 -1.301,2.012 -2.551,2.813 -1.25,0.8 -2.656,1.203 -4.218,1.203 -2.54,0 -4.629,-0.567 -6.27,-1.699 -1.016,-0.704 -1.523,-1.524 -1.523,-2.461 0,-0.821 0.546,-1.836 1.64,-3.047 1.485,-1.68 2.227,-3.301 2.227,-4.864 0,-1.914 -0.711,-3.546 -2.137,-4.894 -1.426,-1.348 -3.293,-2.02 -5.598,-2.02 -2.461,0 -4.519,0.743 -6.179,2.227 -1.66,1.484 -2.492,3.223 -2.492,5.215 0,2.812 1.113,5.496 3.339,8.054 2.227,2.559 5.332,4.524 9.317,5.891 3.984,1.367 8.125,2.051 12.422,2.051 5.195,0 9.308,-1.106 12.336,-3.313 3.027,-2.207 4.988,-4.597 5.886,-7.175 0.547,-1.641 0.821,-5.411 0.821,-11.309 v -21.27 c 0,-2.5 0.097,-4.074 0.293,-4.718 0.195,-0.645 0.488,-1.121 0.878,-1.434 0.391,-0.312 0.84,-0.469 1.348,-0.469 1.016,0 2.051,0.723 3.106,2.168 l 1.757,-1.406 c -1.953,-2.891 -3.972,-4.992 -6.062,-6.301 -2.09,-1.308 -4.465,-1.961 -7.121,-1.961 -3.125,0 -5.567,0.731 -7.324,2.196 -1.758,1.465 -2.832,3.683 -3.223,6.652" /><path
         id="path38"
         style="fill:#ffffff;fill-opacity:1;fill-rule:nonzero;stroke:none"
         d="m 471.234,169.664 h -47.695 v 1.289 l 30.117,49.922 h -8.789 c -3.789,0 -6.504,-0.344 -8.144,-1.027 -1.641,-0.684 -2.969,-1.778 -3.985,-3.282 -1.015,-1.503 -2.07,-4.187 -3.164,-8.054 h -2.051 v 15.937 h 46.114 v -1.582 l -29.883,-49.453 h 3.75 c 7.5,0 12.91,1.074 16.23,3.223 3.321,2.148 5.821,6.074 7.5,11.777 h 1.641 l -1.641,-18.75" /><path
         id="path40"
         style="fill:#ffffff;fill-opacity:1;fill-rule:nonzero;stroke:none"
         d="m 492.797,250.992 c 2.539,0 4.687,-0.89 6.445,-2.668 1.758,-1.777 2.637,-3.914 2.637,-6.414 0,-2.5 -0.887,-4.629 -2.664,-6.387 -1.777,-1.757 -3.918,-2.636 -6.418,-2.636 -2.5,0 -4.629,0.879 -6.387,2.636 -1.758,1.758 -2.637,3.887 -2.637,6.387 0,2.5 0.879,4.637 2.637,6.414 1.758,1.778 3.887,2.668 6.387,2.668 z M 501,224.449 v -43.418 c 0,-3.867 0.449,-6.34 1.348,-7.414 0.898,-1.074 2.656,-1.687 5.273,-1.844 v -2.109 h -29.59 v 2.109 c 2.422,0.079 4.219,0.782 5.391,2.11 0.781,0.898 1.172,3.281 1.172,7.148 v 31.992 c 0,3.868 -0.449,6.336 -1.348,7.411 -0.898,1.074 -2.637,1.691 -5.215,1.847 v 2.168 H 501" /><path
         id="path42"
         style="fill:#ffffff;fill-opacity:1;fill-rule:nonzero;stroke:none"
         d="m 539.027,221.93 c -1.992,0 -3.699,-0.754 -5.125,-2.258 -1.425,-1.504 -2.363,-4.473 -2.812,-8.906 -0.449,-4.434 -0.676,-10.594 -0.676,-18.485 0,-4.179 0.274,-8.086 0.82,-11.718 0.43,-2.774 1.348,-4.883 2.754,-6.329 1.407,-1.445 3.008,-2.168 4.805,-2.168 1.758,0 3.223,0.489 4.395,1.465 1.523,1.328 2.539,3.184 3.046,5.567 0.782,3.711 1.172,11.211 1.172,22.5 0,6.64 -0.371,11.199 -1.113,13.679 -0.742,2.481 -1.836,4.289 -3.281,5.422 -1.016,0.821 -2.344,1.231 -3.985,1.231 z m -0.234,4.16 c 4.766,0 9.199,-1.231 13.301,-3.692 4.101,-2.46 7.219,-5.957 9.347,-10.488 2.129,-4.531 3.192,-9.492 3.192,-14.883 0,-7.773 -1.973,-14.277 -5.918,-19.511 -4.766,-6.328 -11.348,-9.493 -19.746,-9.493 -8.242,0 -14.59,2.891 -19.043,8.672 -4.453,5.782 -6.68,12.481 -6.68,20.098 0,7.852 2.277,14.695 6.828,20.535 4.551,5.84 10.789,8.762 18.719,8.762" /><path
         id="path44"
         style="fill:#ffffff;fill-opacity:1;fill-rule:nonzero;stroke:none"
         d="m 595.336,224.449 v -7.09 c 2.812,3.047 5.508,5.262 8.086,6.649 2.578,1.387 5.351,2.082 8.32,2.082 3.555,0 6.504,-0.988 8.848,-2.961 2.344,-1.973 3.906,-4.422 4.687,-7.352 0.625,-2.226 0.938,-6.504 0.938,-12.832 v -21.328 c 0,-4.219 0.383,-6.847 1.144,-7.883 0.762,-1.035 2.352,-1.687 4.774,-1.961 v -2.109 h -27.715 v 2.109 c 2.07,0.274 3.555,1.133 4.453,2.579 0.625,0.976 0.938,3.398 0.938,7.265 v 24.375 c 0,4.492 -0.176,7.324 -0.528,8.496 -0.351,1.172 -0.945,2.078 -1.785,2.723 -0.84,0.644 -1.769,0.969 -2.785,0.969 -3.359,0 -6.484,-2.403 -9.375,-7.207 v -29.356 c 0,-4.101 0.383,-6.699 1.144,-7.793 0.762,-1.094 2.176,-1.777 4.247,-2.051 v -2.109 h -27.715 v 2.109 c 2.304,0.235 3.945,0.977 4.922,2.227 0.664,0.859 0.996,3.398 0.996,7.617 v 30.938 c 0,4.14 -0.379,6.718 -1.141,7.734 -0.762,1.016 -2.355,1.68 -4.777,1.992 v 2.168 h 22.324" /><path
         id="path46"
         style="fill:#ffffff;fill-opacity:1;fill-rule:nonzero;stroke:none"
         d="m 671.684,202.945 c 0,6.289 -0.34,10.606 -1.024,12.95 -0.683,2.343 -1.75,4.121 -3.195,5.332 -0.82,0.703 -1.914,1.054 -3.281,1.054 -2.032,0 -3.692,-0.996 -4.981,-2.988 -2.305,-3.477 -3.457,-8.242 -3.457,-14.297 v -2.051 z m 14.414,-3.925 h -30.059 c 0.352,-7.266 2.285,-13.008 5.801,-17.227 2.695,-3.242 5.937,-4.863 9.726,-4.863 2.344,0 4.473,0.652 6.387,1.961 1.914,1.308 3.965,3.664 6.152,7.062 l 1.993,-1.289 c -2.969,-6.055 -6.25,-10.344 -9.844,-12.863 -3.594,-2.52 -7.754,-3.778 -12.481,-3.778 -8.125,0 -14.277,3.125 -18.457,9.375 -3.359,5.04 -5.039,11.29 -5.039,18.75 0,9.141 2.473,16.415 7.414,21.825 4.942,5.41 10.731,8.117 17.372,8.117 5.546,0 10.363,-2.277 14.445,-6.828 4.082,-4.551 6.277,-11.297 6.59,-20.242" /><path
         id="path48"
         style="fill:#ffffff;fill-opacity:1;fill-rule:nonzero;stroke:none"
         d="m 762.855,171.832 v -2.168 h -41.542 v 2.168 h 2.636 c 2.305,0 4.16,0.41 5.567,1.231 1.015,0.546 1.797,1.484 2.343,2.812 0.43,0.938 0.645,3.398 0.645,7.383 v 52.265 c 0,4.063 -0.215,6.602 -0.645,7.618 -0.429,1.015 -1.296,1.902 -2.605,2.664 -1.309,0.761 -3.078,1.144 -5.305,1.144 h -2.636 v 2.168 h 41.542 v -2.168 h -2.636 c -2.305,0 -4.16,-0.41 -5.567,-1.23 -1.015,-0.547 -1.816,-1.485 -2.402,-2.813 -0.43,-0.937 -0.645,-3.398 -0.645,-7.383 v -52.265 c 0,-4.063 0.227,-6.602 0.676,-7.617 0.449,-1.016 1.328,-1.907 2.637,-2.668 1.309,-0.762 3.074,-1.141 5.301,-1.141 h 2.636" /><path
         id="path50"
         style="fill:#ffffff;fill-opacity:1;fill-rule:nonzero;stroke:none"
         d="m 791.391,244.488 v -20.039 h 13.007 v -5.801 H 791.391 V 184.84 c 0,-3.164 0.148,-5.207 0.441,-6.125 0.293,-0.918 0.809,-1.66 1.551,-2.227 0.742,-0.566 1.426,-0.847 2.051,-0.847 2.539,0 4.941,1.933 7.207,5.8 l 1.757,-1.289 c -3.164,-7.5 -8.3,-11.25 -15.41,-11.25 -3.476,0 -6.414,0.965 -8.816,2.899 -2.402,1.933 -3.938,4.094 -4.602,6.476 -0.39,1.328 -0.586,4.922 -0.586,10.782 v 29.589 h -7.148 v 2.051 c 4.922,3.477 9.113,7.129 12.57,10.957 3.457,3.828 6.473,8.106 9.051,12.832 h 1.934" /><path
         id="path52"
         style="fill:#ffffff;fill-opacity:1;fill-rule:nonzero;stroke:none"
         d="m 839.848,182.027 v 18.34 c -4.727,-2.773 -8.243,-5.742 -10.547,-8.906 -1.524,-2.109 -2.285,-4.238 -2.285,-6.387 0,-1.797 0.644,-3.379 1.933,-4.746 0.977,-1.055 2.344,-1.582 4.102,-1.582 1.953,0 4.219,1.094 6.797,3.281 z m 0,-4.277 c -6.68,-5.898 -12.676,-8.848 -17.989,-8.848 -3.125,0 -5.722,1.024 -7.793,3.075 -2.07,2.05 -3.105,4.621 -3.105,7.707 0,4.179 1.797,7.937 5.391,11.277 3.593,3.34 11.425,7.785 23.496,13.332 v 5.508 c 0,4.14 -0.223,6.746 -0.672,7.82 -0.449,1.074 -1.301,2.012 -2.551,2.813 -1.25,0.8 -2.656,1.203 -4.219,1.203 -2.539,0 -4.629,-0.567 -6.269,-1.699 -1.016,-0.704 -1.524,-1.524 -1.524,-2.461 0,-0.821 0.547,-1.836 1.641,-3.047 1.484,-1.68 2.226,-3.301 2.226,-4.864 0,-1.914 -0.71,-3.546 -2.136,-4.894 -1.426,-1.348 -3.293,-2.02 -5.598,-2.02 -2.461,0 -4.519,0.743 -6.18,2.227 -1.66,1.484 -2.492,3.223 -2.492,5.215 0,2.812 1.114,5.496 3.34,8.054 2.227,2.559 5.332,4.524 9.316,5.891 3.985,1.367 8.125,2.051 12.422,2.051 5.196,0 9.309,-1.106 12.336,-3.313 3.028,-2.207 4.989,-4.597 5.887,-7.175 0.547,-1.641 0.82,-5.411 0.82,-11.309 v -21.27 c 0,-2.5 0.098,-4.074 0.293,-4.718 0.196,-0.645 0.489,-1.121 0.879,-1.434 0.391,-0.312 0.84,-0.469 1.348,-0.469 1.015,0 2.051,0.723 3.105,2.168 l 1.758,-1.406 c -1.953,-2.891 -3.973,-4.992 -6.062,-6.301 -2.09,-1.308 -4.465,-1.961 -7.121,-1.961 -3.125,0 -5.567,0.731 -7.325,2.196 -1.757,1.465 -2.832,3.683 -3.222,6.652" /><path
         id="path54"
         style="fill:#ffffff;fill-opacity:1;fill-rule:nonzero;stroke:none"
         d="m 891.059,249.117 v -68.086 c 0,-3.867 0.449,-6.34 1.347,-7.414 0.899,-1.074 2.657,-1.687 5.274,-1.844 v -2.109 h -29.59 v 2.109 c 2.422,0.079 4.219,0.782 5.39,2.11 0.782,0.898 1.172,3.281 1.172,7.148 v 56.719 c 0,3.828 -0.449,6.277 -1.347,7.352 -0.899,1.074 -2.637,1.691 -5.215,1.847 v 2.168 h 22.969" /><path
         id="path56"
         style="fill:#ffffff;fill-opacity:1;fill-rule:nonzero;stroke:none"
         d="m 916.137,250.992 c 2.539,0 4.687,-0.89 6.445,-2.668 1.758,-1.777 2.637,-3.914 2.637,-6.414 0,-2.5 -0.887,-4.629 -2.664,-6.387 -1.778,-1.757 -3.918,-2.636 -6.418,-2.636 -2.5,0 -4.629,0.879 -6.387,2.636 -1.758,1.758 -2.637,3.887 -2.637,6.387 0,2.5 0.879,4.637 2.637,6.414 1.758,1.778 3.887,2.668 6.387,2.668 z m 8.203,-26.543 v -43.418 c 0,-3.867 0.449,-6.34 1.348,-7.414 0.898,-1.074 2.656,-1.687 5.273,-1.844 v -2.109 h -29.59 v 2.109 c 2.422,0.079 4.219,0.782 5.391,2.11 0.781,0.898 1.172,3.281 1.172,7.148 v 31.992 c 0,3.868 -0.45,6.336 -1.348,7.411 -0.898,1.074 -2.637,1.691 -5.215,1.847 v 2.168 h 22.969" /><path
         id="path58"
         style="fill:#ffffff;fill-opacity:1;fill-rule:nonzero;stroke:none"
         d="m 966.527,182.027 v 18.34 c -4.726,-2.773 -8.242,-5.742 -10.547,-8.906 -1.523,-2.109 -2.285,-4.238 -2.285,-6.387 0,-1.797 0.645,-3.379 1.934,-4.746 0.976,-1.055 2.344,-1.582 4.101,-1.582 1.954,0 4.219,1.094 6.797,3.281 z m 0,-4.277 c -6.679,-5.898 -12.675,-8.848 -17.988,-8.848 -3.125,0 -5.723,1.024 -7.793,3.075 -2.07,2.05 -3.105,4.621 -3.105,7.707 0,4.179 1.797,7.937 5.39,11.277 3.594,3.34 11.426,7.785 23.496,13.332 v 5.508 c 0,4.14 -0.222,6.746 -0.672,7.82 -0.449,1.074 -1.3,2.012 -2.55,2.813 -1.25,0.8 -2.657,1.203 -4.219,1.203 -2.539,0 -4.629,-0.567 -6.27,-1.699 -1.015,-0.704 -1.523,-1.524 -1.523,-2.461 0,-0.821 0.547,-1.836 1.641,-3.047 1.484,-1.68 2.226,-3.301 2.226,-4.864 0,-1.914 -0.711,-3.546 -2.137,-4.894 -1.425,-1.348 -3.293,-2.02 -5.597,-2.02 -2.461,0 -4.52,0.743 -6.18,2.227 -1.66,1.484 -2.492,3.223 -2.492,5.215 0,2.812 1.113,5.496 3.34,8.054 2.226,2.559 5.332,4.524 9.316,5.891 3.985,1.367 8.125,2.051 12.422,2.051 5.195,0 9.309,-1.106 12.336,-3.313 3.027,-2.207 4.988,-4.597 5.887,-7.175 0.547,-1.641 0.82,-5.411 0.82,-11.309 v -21.27 c 0,-2.5 0.098,-4.074 0.293,-4.718 0.195,-0.645 0.488,-1.121 0.879,-1.434 0.391,-0.312 0.84,-0.469 1.348,-0.469 1.015,0 2.05,0.723 3.105,2.168 l 1.758,-1.406 c -1.953,-2.891 -3.973,-4.992 -6.063,-6.301 -2.09,-1.308 -4.465,-1.961 -7.121,-1.961 -3.125,0 -5.566,0.731 -7.324,2.196 -1.758,1.465 -2.832,3.683 -3.223,6.652" /><path
         id="path60"
         style="fill:#ffffff;fill-opacity:1;fill-rule:nonzero;stroke:none"
         d="m 1018.68,224.449 v -7.09 c 2.81,3.047 5.5,5.262 8.08,6.649 2.58,1.387 5.35,2.082 8.32,2.082 3.56,0 6.51,-0.988 8.85,-2.961 2.34,-1.973 3.91,-4.422 4.69,-7.352 0.62,-2.226 0.94,-6.504 0.94,-12.832 v -21.328 c 0,-4.219 0.38,-6.847 1.14,-7.883 0.76,-1.035 2.35,-1.687 4.77,-1.961 v -2.109 h -27.71 v 2.109 c 2.07,0.274 3.55,1.133 4.45,2.579 0.63,0.976 0.94,3.398 0.94,7.265 v 24.375 c 0,4.492 -0.18,7.324 -0.53,8.496 -0.35,1.172 -0.95,2.078 -1.79,2.723 -0.83,0.644 -1.76,0.969 -2.78,0.969 -3.36,0 -6.48,-2.403 -9.37,-7.207 v -29.356 c 0,-4.101 0.38,-6.699 1.14,-7.793 0.76,-1.094 2.18,-1.777 4.25,-2.051 v -2.109 h -27.718 v 2.109 c 2.304,0.235 3.948,0.977 4.918,2.227 0.67,0.859 1,3.398 1,7.617 v 30.938 c 0,4.14 -0.38,6.718 -1.14,7.734 -0.76,1.016 -2.357,1.68 -4.778,1.992 v 2.168 h 22.328" /><path
         id="path62"
         style="fill:#ffffff;fill-opacity:1;fill-rule:nonzero;stroke:none"
         d="m 1093.27,182.027 v 18.34 c -4.73,-2.773 -8.25,-5.742 -10.55,-8.906 -1.52,-2.109 -2.29,-4.238 -2.29,-6.387 0,-1.797 0.65,-3.379 1.94,-4.746 0.97,-1.055 2.34,-1.582 4.1,-1.582 1.95,0 4.22,1.094 6.8,3.281 z m 0,-4.277 c -6.68,-5.898 -12.68,-8.848 -17.99,-8.848 -3.13,0 -5.72,1.024 -7.79,3.075 -2.07,2.05 -3.11,4.621 -3.11,7.707 0,4.179 1.8,7.937 5.39,11.277 3.59,3.34 11.43,7.785 23.5,13.332 v 5.508 c 0,4.14 -0.23,6.746 -0.68,7.82 -0.45,1.074 -1.3,2.012 -2.55,2.813 -1.25,0.8 -2.65,1.203 -4.21,1.203 -2.54,0 -4.63,-0.567 -6.27,-1.699 -1.02,-0.704 -1.53,-1.524 -1.53,-2.461 0,-0.821 0.55,-1.836 1.64,-3.047 1.49,-1.68 2.23,-3.301 2.23,-4.864 0,-1.914 -0.71,-3.546 -2.14,-4.894 -1.43,-1.348 -3.29,-2.02 -5.59,-2.02 -2.47,0 -4.53,0.743 -6.19,2.227 -1.66,1.484 -2.49,3.223 -2.49,5.215 0,2.812 1.12,5.496 3.34,8.054 2.23,2.559 5.34,4.524 9.32,5.891 3.98,1.367 8.12,2.051 12.42,2.051 5.2,0 9.31,-1.106 12.34,-3.313 3.02,-2.207 4.99,-4.597 5.88,-7.175 0.55,-1.641 0.82,-5.411 0.82,-11.309 v -21.27 c 0,-2.5 0.1,-4.074 0.3,-4.718 0.19,-0.645 0.49,-1.121 0.88,-1.434 0.39,-0.312 0.84,-0.469 1.34,-0.469 1.02,0 2.05,0.723 3.11,2.168 l 1.76,-1.406 c -1.96,-2.891 -3.98,-4.992 -6.07,-6.301 -2.09,-1.308 -4.46,-1.961 -7.12,-1.961 -3.12,0 -5.56,0.731 -7.32,2.196 -1.76,1.465 -2.83,3.683 -3.22,6.652" /><path
         id="path64"
         style="fill:#ffffff;fill-opacity:1;fill-rule:nonzero;stroke:none"
         d="m 1189.89,211.969 c -2.89,5.547 -6.43,8.32 -10.61,8.32 -1.44,0 -2.63,-0.391 -3.57,-1.172 -1.45,-1.211 -2.63,-3.34 -3.55,-6.387 -0.91,-3.046 -1.37,-7.714 -1.37,-14.003 0,-6.914 0.5,-12.032 1.52,-15.352 1.02,-3.32 2.4,-5.723 4.16,-7.207 0.9,-0.742 2.13,-1.113 3.69,-1.113 3.44,0 6.68,2.695 9.73,8.086 z m 16.4,37.148 V 186.07 c 0,-4.257 0.12,-6.777 0.36,-7.558 0.31,-1.289 0.9,-2.246 1.78,-2.871 0.88,-0.625 2.41,-1.016 4.6,-1.172 v -1.934 l -23.14,-4.512 v 8.672 c -2.78,-3.359 -5.25,-5.644 -7.41,-6.855 -2.17,-1.211 -4.62,-1.817 -7.36,-1.817 -6.99,0 -12.52,3.125 -16.58,9.375 -3.28,5.079 -4.92,11.309 -4.92,18.692 0,5.898 1.01,11.18 3.05,15.848 2.03,4.667 4.81,8.195 8.34,10.578 3.54,2.382 7.34,3.574 11.4,3.574 2.62,0 4.94,-0.508 6.97,-1.524 2.04,-1.015 4.2,-2.793 6.51,-5.332 v 16.524 c 0,4.18 -0.18,6.699 -0.53,7.558 -0.47,1.133 -1.17,1.973 -2.11,2.52 -0.94,0.547 -2.69,0.82 -5.27,0.82 v 2.461 h 24.31" /><path
         id="path66"
         style="fill:#ffffff;fill-opacity:1;fill-rule:nonzero;stroke:none"
         d="m 1251.76,202.945 c 0,6.289 -0.34,10.606 -1.02,12.95 -0.69,2.343 -1.75,4.121 -3.2,5.332 -0.82,0.703 -1.91,1.054 -3.28,1.054 -2.03,0 -3.69,-0.996 -4.98,-2.988 -2.3,-3.477 -3.45,-8.242 -3.45,-14.297 v -2.051 z m 14.42,-3.925 h -30.06 c 0.35,-7.266 2.28,-13.008 5.8,-17.227 2.69,-3.242 5.94,-4.863 9.73,-4.863 2.34,0 4.47,0.652 6.38,1.961 1.92,1.308 3.97,3.664 6.15,7.062 l 2,-1.289 c -2.97,-6.055 -6.25,-10.344 -9.85,-12.863 -3.59,-2.52 -7.75,-3.778 -12.48,-3.778 -8.12,0 -14.27,3.125 -18.45,9.375 -3.36,5.04 -5.04,11.29 -5.04,18.75 0,9.141 2.47,16.415 7.41,21.825 4.94,5.41 10.73,8.117 17.37,8.117 5.55,0 10.36,-2.277 14.44,-6.828 4.09,-4.551 6.28,-11.297 6.6,-20.242" /><path
         id="path68"
         style="fill:#ffffff;fill-opacity:1;fill-rule:nonzero;stroke:none"
         d="m 1294.48,249.117 v -68.086 c 0,-3.867 0.45,-6.34 1.35,-7.414 0.89,-1.074 2.65,-1.687 5.27,-1.844 v -2.109 h -29.59 v 2.109 c 2.42,0.079 4.22,0.782 5.39,2.11 0.78,0.898 1.17,3.281 1.17,7.148 v 56.719 c 0,3.828 -0.45,6.277 -1.35,7.352 -0.89,1.074 -2.63,1.691 -5.21,1.847 v 2.168 h 22.97" /><path
         id="path70"
         style="fill:#ffffff;fill-opacity:1;fill-rule:nonzero;stroke:none"
         d="m 1364.73,244.547 v -34.336 c 1.29,-0.078 2.27,-0.117 2.93,-0.117 4.77,0 8.44,1.414 11.02,4.246 2.57,2.832 3.86,7.219 3.86,13.156 0,5.899 -1.29,10.215 -3.86,12.949 -2.58,2.735 -6.43,4.102 -11.55,4.102 z m 0,-38.906 v -22.032 c 0,-4.296 0.27,-7.004 0.79,-8.117 0.53,-1.113 1.47,-2 2.81,-2.664 1.35,-0.664 3.82,-0.996 7.42,-0.996 v -2.168 h -40.37 v 2.168 c 3.67,0 6.16,0.34 7.47,1.023 1.31,0.684 2.22,1.575 2.75,2.668 0.53,1.094 0.79,3.79 0.79,8.086 v 51.563 c 0,4.297 -0.26,7 -0.79,8.113 -0.53,1.113 -1.45,2.004 -2.78,2.668 -1.33,0.664 -3.81,0.996 -7.44,0.996 v 2.168 H 1370 c 11.41,0 19.59,-2.031 24.56,-6.094 4.96,-4.062 7.44,-9.14 7.44,-15.234 0,-5.156 -1.6,-9.57 -4.81,-13.242 -3.2,-3.672 -7.61,-6.172 -13.24,-7.5 -3.79,-0.938 -10.2,-1.406 -19.22,-1.406" /><path
         id="path72"
         style="fill:#ffffff;fill-opacity:1;fill-rule:nonzero;stroke:none"
         d="m 1432.41,224.449 v -12.422 c 3.63,5.664 6.81,9.422 9.55,11.278 2.73,1.855 5.37,2.785 7.91,2.785 2.19,0 3.93,-0.676 5.24,-2.024 1.31,-1.347 1.97,-3.25 1.97,-5.711 0,-2.617 -0.64,-4.648 -1.91,-6.093 -1.27,-1.446 -2.8,-2.168 -4.6,-2.168 -2.07,0 -3.87,0.664 -5.39,1.992 -1.52,1.328 -2.42,2.07 -2.69,2.227 -0.4,0.234 -0.84,0.351 -1.35,0.351 -1.14,0 -2.21,-0.43 -3.22,-1.289 -1.61,-1.328 -2.82,-3.223 -3.64,-5.684 -1.25,-3.789 -1.87,-7.968 -1.87,-12.539 v -12.597 l 0.06,-3.282 c 0,-2.226 0.13,-3.652 0.41,-4.277 0.46,-1.055 1.16,-1.828 2.08,-2.316 0.91,-0.489 2.47,-0.789 4.65,-0.907 v -2.109 h -29.59 v 2.109 c 2.39,0.196 4,0.848 4.84,1.961 0.84,1.114 1.26,4.055 1.26,8.821 v 30.293 c 0,3.125 -0.16,5.117 -0.47,5.976 -0.39,1.094 -0.96,1.895 -1.7,2.403 -0.74,0.507 -2.05,0.859 -3.93,1.054 v 2.168 h 22.39" /><path
         id="path74"
         style="fill:#ffffff;fill-opacity:1;fill-rule:nonzero;stroke:none"
         d="m 1476.12,250.992 c 2.54,0 4.69,-0.89 6.44,-2.668 1.76,-1.777 2.64,-3.914 2.64,-6.414 0,-2.5 -0.89,-4.629 -2.67,-6.387 -1.77,-1.757 -3.91,-2.636 -6.41,-2.636 -2.5,0 -4.63,0.879 -6.39,2.636 -1.76,1.758 -2.64,3.887 -2.64,6.387 0,2.5 0.88,4.637 2.64,6.414 1.76,1.778 3.89,2.668 6.39,2.668 z m 8.2,-26.543 v -43.418 c 0,-3.867 0.45,-6.34 1.35,-7.414 0.9,-1.074 2.66,-1.687 5.27,-1.844 v -2.109 h -29.59 v 2.109 c 2.42,0.079 4.22,0.782 5.39,2.11 0.78,0.898 1.18,3.281 1.18,7.148 v 31.992 c 0,3.868 -0.45,6.336 -1.35,7.411 -0.9,1.074 -2.64,1.691 -5.22,1.847 v 2.168 h 22.97" /><path
         id="path76"
         style="fill:#ffffff;fill-opacity:1;fill-rule:nonzero;stroke:none"
         d="m 1521,168.023 -18.46,42.481 c -2.22,5.117 -3.96,8.359 -5.21,9.726 -0.9,1.016 -2.23,1.7 -3.99,2.051 v 2.168 h 29.13 v -2.168 c -1.84,0 -3.09,-0.332 -3.75,-0.996 -0.94,-0.859 -1.41,-1.875 -1.41,-3.047 0,-1.445 0.86,-4.16 2.58,-8.144 l 9.02,-20.567 7.21,17.754 c 2.07,5.078 3.1,8.672 3.1,10.782 0,1.21 -0.44,2.195 -1.31,2.957 -0.88,0.761 -2.44,1.183 -4.66,1.261 v 2.168 h 17.93 v -2.168 c -1.72,-0.234 -3.13,-0.879 -4.22,-1.933 -1.1,-1.055 -2.74,-4.16 -4.92,-9.317 l -18.29,-43.008 H 1521" /><path
         id="path78"
         style="fill:#ffffff;fill-opacity:1;fill-rule:nonzero;stroke:none"
         d="m 1586.51,182.027 v 18.34 c -4.73,-2.773 -8.24,-5.742 -10.55,-8.906 -1.52,-2.109 -2.28,-4.238 -2.28,-6.387 0,-1.797 0.64,-3.379 1.93,-4.746 0.98,-1.055 2.34,-1.582 4.1,-1.582 1.96,0 4.22,1.094 6.8,3.281 z m 0,-4.277 c -6.68,-5.898 -12.68,-8.848 -17.99,-8.848 -3.12,0 -5.72,1.024 -7.79,3.075 -2.07,2.05 -3.11,4.621 -3.11,7.707 0,4.179 1.8,7.937 5.39,11.277 3.6,3.34 11.43,7.785 23.5,13.332 v 5.508 c 0,4.14 -0.23,6.746 -0.68,7.82 -0.44,1.074 -1.29,2.012 -2.54,2.813 -1.25,0.8 -2.66,1.203 -4.22,1.203 -2.54,0 -4.63,-0.567 -6.27,-1.699 -1.02,-0.704 -1.53,-1.524 -1.53,-2.461 0,-0.821 0.55,-1.836 1.65,-3.047 1.48,-1.68 2.22,-3.301 2.22,-4.864 0,-1.914 -0.71,-3.546 -2.14,-4.894 -1.42,-1.348 -3.29,-2.02 -5.59,-2.02 -2.46,0 -4.52,0.743 -6.18,2.227 -1.66,1.484 -2.49,3.223 -2.49,5.215 0,2.812 1.11,5.496 3.34,8.054 2.22,2.559 5.33,4.524 9.31,5.891 3.99,1.367 8.13,2.051 12.42,2.051 5.2,0 9.31,-1.106 12.34,-3.313 3.02,-2.207 4.99,-4.597 5.89,-7.175 0.54,-1.641 0.82,-5.411 0.82,-11.309 v -21.27 c 0,-2.5 0.09,-4.074 0.29,-4.718 0.19,-0.645 0.49,-1.121 0.88,-1.434 0.39,-0.312 0.84,-0.469 1.35,-0.469 1.01,0 2.05,0.723 3.1,2.168 l 1.76,-1.406 c -1.95,-2.891 -3.98,-4.992 -6.07,-6.301 -2.09,-1.308 -4.46,-1.961 -7.11,-1.961 -3.13,0 -5.57,0.731 -7.33,2.196 -1.76,1.465 -2.83,3.683 -3.22,6.652" /><path
         id="path80"
         style="fill:#ffffff;fill-opacity:1;fill-rule:nonzero;stroke:none"
         d="m 1638.01,244.488 v -20.039 h 13.01 v -5.801 h -13.01 V 184.84 c 0,-3.164 0.15,-5.207 0.44,-6.125 0.3,-0.918 0.81,-1.66 1.55,-2.227 0.75,-0.566 1.43,-0.847 2.06,-0.847 2.53,0 4.94,1.933 7.2,5.8 l 1.76,-1.289 c -3.16,-7.5 -8.3,-11.25 -15.41,-11.25 -3.48,0 -6.42,0.965 -8.82,2.899 -2.4,1.933 -3.93,4.094 -4.6,6.476 -0.39,1.328 -0.58,4.922 -0.58,10.782 v 29.589 h -7.15 v 2.051 c 4.92,3.477 9.11,7.129 12.57,10.957 3.45,3.828 6.47,8.106 9.05,12.832 h 1.93" /><path
         id="path82"
         style="fill:#ffffff;fill-opacity:1;fill-rule:nonzero;stroke:none"
         d="m 1688.23,202.945 c 0,6.289 -0.34,10.606 -1.03,12.95 -0.68,2.343 -1.75,4.121 -3.19,5.332 -0.82,0.703 -1.92,1.054 -3.28,1.054 -2.03,0 -3.69,-0.996 -4.98,-2.988 -2.31,-3.477 -3.46,-8.242 -3.46,-14.297 v -2.051 z m 14.41,-3.925 h -30.06 c 0.35,-7.266 2.29,-13.008 5.8,-17.227 2.7,-3.242 5.94,-4.863 9.73,-4.863 2.34,0 4.47,0.652 6.39,1.961 1.91,1.308 3.96,3.664 6.15,7.062 l 1.99,-1.289 c -2.97,-6.055 -6.25,-10.344 -9.84,-12.863 -3.6,-2.52 -7.76,-3.778 -12.48,-3.778 -8.13,0 -14.28,3.125 -18.46,9.375 -3.36,5.04 -5.04,11.29 -5.04,18.75 0,9.141 2.47,16.415 7.41,21.825 4.94,5.41 10.74,8.117 17.38,8.117 5.54,0 10.36,-2.277 14.44,-6.828 4.08,-4.551 6.28,-11.297 6.59,-20.242" /><path
         id="path84"
         style="fill:#ffffff;fill-opacity:1;fill-rule:nonzero;stroke:none"
         d="m 1768.15,244.547 v -32.344 h 1.58 c 5.04,0 8.69,1.582 10.96,4.746 2.26,3.164 3.71,7.832 4.33,14.004 h 2.23 v -41.601 h -2.23 c -0.46,4.531 -1.45,8.242 -2.95,11.132 -1.51,2.891 -3.26,4.832 -5.25,5.829 -1.99,0.996 -4.88,1.496 -8.67,1.496 v -22.383 c 0,-4.375 0.18,-7.051 0.56,-8.028 0.37,-0.976 1.06,-1.777 2.08,-2.402 1.01,-0.625 2.65,-0.937 4.92,-0.937 h 4.74 c 7.43,0 13.37,1.718 17.85,5.156 4.47,3.437 7.68,8.672 9.63,15.703 h 2.17 l -3.57,-25.254 h -68.67 v 2.168 h 2.63 c 2.31,0 4.16,0.41 5.57,1.231 1.02,0.546 1.8,1.484 2.34,2.812 0.43,0.938 0.65,3.398 0.65,7.383 v 52.265 c 0,3.594 -0.1,5.801 -0.3,6.622 -0.39,1.367 -1.11,2.421 -2.16,3.164 -1.49,1.093 -3.52,1.64 -6.1,1.64 h -2.63 v 2.168 h 66.5 v -23.496 h -2.23 c -1.13,5.742 -2.72,9.863 -4.77,12.363 -2.05,2.5 -4.95,4.336 -8.7,5.508 -2.19,0.703 -6.29,1.055 -12.31,1.055 h -8.2" /><path
         id="path86"
         style="fill:#ffffff;fill-opacity:1;fill-rule:nonzero;stroke:none"
         d="m 1856.33,180.738 v 22.559 c 0,6.289 -0.34,10.449 -1.02,12.48 -0.69,2.032 -1.95,3.789 -3.78,5.274 -0.94,0.742 -2.13,1.113 -3.58,1.113 -2.96,0 -5.27,-1.309 -6.91,-3.926 -2.58,-4.023 -3.87,-11.504 -3.87,-22.441 0,-8.399 1.12,-14.297 3.34,-17.695 1.53,-2.305 3.5,-3.457 5.92,-3.457 1.41,0 3,0.488 4.78,1.464 1.77,0.977 3.48,2.52 5.12,4.629 z m 0,-5.332 c -2.38,-2.5 -4.61,-4.258 -6.68,-5.273 -2.73,-1.406 -5.58,-2.11 -8.55,-2.11 -6.88,0 -12.31,3.067 -16.29,9.2 -3.16,4.882 -4.75,10.722 -4.75,17.519 0,5.664 1.2,10.985 3.61,15.965 2.4,4.981 5.7,8.789 9.9,11.426 4.2,2.637 8.64,3.957 13.33,3.957 3.12,0 5.91,-0.527 8.35,-1.582 2.44,-1.055 4.54,-2.656 6.3,-4.805 l 9.2,6.387 h 1.99 v -70.957 c 0,-3.594 0.31,-5.84 0.94,-6.738 1.01,-1.446 3.06,-2.188 6.15,-2.227 V 144 h -31.64 v 2.168 c 2.42,0 4.18,0.273 5.27,0.82 1.1,0.547 1.85,1.27 2.26,2.168 0.41,0.899 0.61,2.735 0.61,5.508 v 20.742" /><path
         id="path88"
         style="fill:#ffffff;fill-opacity:1;fill-rule:nonzero;stroke:none"
         d="m 1939.18,224.449 v -42.89 c 0,-4.18 0.4,-6.789 1.18,-7.825 0.78,-1.035 2.36,-1.687 4.74,-1.961 v -2.109 h -22.32 v 7.324 c -2.62,-3.125 -5.24,-5.402 -7.85,-6.828 -2.62,-1.426 -5.55,-2.137 -8.79,-2.137 -3.09,0 -5.83,0.946 -8.23,2.84 -2.41,1.895 -4.02,4.114 -4.84,6.653 -0.82,2.539 -1.23,6.972 -1.23,13.3 v 21.739 c 0,4.14 -0.38,6.718 -1.14,7.734 -0.76,1.016 -2.36,1.68 -4.78,1.992 v 2.168 h 22.33 v -37.441 c 0,-3.906 0.18,-6.426 0.55,-7.559 0.37,-1.133 0.96,-1.992 1.76,-2.578 0.8,-0.586 1.73,-0.879 2.78,-0.879 1.41,0 2.68,0.371 3.81,1.113 1.57,1.016 3.44,3.067 5.63,6.153 v 29.297 c 0,4.14 -0.38,6.718 -1.14,7.734 -0.77,1.016 -2.36,1.68 -4.78,1.992 v 2.168 h 22.32" /><path
         id="path90"
         style="fill:#ffffff;fill-opacity:1;fill-rule:nonzero;stroke:none"
         d="m 1966.2,250.992 c 2.54,0 4.68,-0.89 6.44,-2.668 1.76,-1.777 2.64,-3.914 2.64,-6.414 0,-2.5 -0.89,-4.629 -2.67,-6.387 -1.78,-1.757 -3.91,-2.636 -6.41,-2.636 -2.5,0 -4.63,0.879 -6.39,2.636 -1.76,1.758 -2.64,3.887 -2.64,6.387 0,2.5 0.88,4.637 2.64,6.414 1.76,1.778 3.89,2.668 6.39,2.668 z m 8.2,-26.543 v -43.418 c 0,-3.867 0.45,-6.34 1.35,-7.414 0.9,-1.074 2.65,-1.687 5.27,-1.844 v -2.109 h -29.59 v 2.109 c 2.42,0.079 4.22,0.782 5.39,2.11 0.78,0.898 1.17,3.281 1.17,7.148 v 31.992 c 0,3.868 -0.45,6.336 -1.34,7.411 -0.9,1.074 -2.64,1.691 -5.22,1.847 v 2.168 h 22.97" /><path
         id="path92"
         style="fill:#ffffff;fill-opacity:1;fill-rule:nonzero;stroke:none"
         d="m 2008.09,244.488 v -20.039 h 13.01 v -5.801 h -13.01 V 184.84 c 0,-3.164 0.15,-5.207 0.44,-6.125 0.29,-0.918 0.81,-1.66 1.55,-2.227 0.75,-0.566 1.43,-0.847 2.05,-0.847 2.54,0 4.95,1.933 7.21,5.8 l 1.76,-1.289 c -3.17,-7.5 -8.3,-11.25 -15.41,-11.25 -3.48,0 -6.42,0.965 -8.82,2.899 -2.4,1.933 -3.94,4.094 -4.6,6.476 -0.39,1.328 -0.59,4.922 -0.59,10.782 v 29.589 h -7.14 v 2.051 c 4.92,3.477 9.11,7.129 12.56,10.957 3.46,3.828 6.48,8.106 9.06,12.832 h 1.93" /><path
         id="path94"
         style="fill:#ffffff;fill-opacity:1;fill-rule:nonzero;stroke:none"
         d="m 2051.45,167.438 -17.7,40.605 c -2.65,6.133 -4.61,9.902 -5.88,11.309 -1.27,1.406 -2.81,2.382 -4.6,2.929 v 2.168 h 29.12 v -2.168 c -1.92,-0.078 -3.26,-0.449 -4.05,-1.113 -0.78,-0.664 -1.17,-1.465 -1.17,-2.402 0,-1.485 0.98,-4.414 2.93,-8.789 l 9.38,-21.446 6.38,16.582 c 2.31,5.899 3.46,10 3.46,12.305 0,1.445 -0.48,2.598 -1.43,3.457 -0.96,0.859 -2.65,1.328 -5.07,1.406 v 2.168 h 18.34 v -2.168 c -1.8,-0.195 -3.26,-0.89 -4.4,-2.082 -1.13,-1.191 -3.02,-5.242 -5.68,-12.156 l -15.65,-40.605 c -3.94,-10.157 -6.87,-16.407 -8.78,-18.75 -2.7,-3.282 -6.08,-4.922 -10.14,-4.922 -3.24,0 -5.87,0.925 -7.88,2.781 -2.01,1.855 -3.02,4.094 -3.02,6.711 0,2.265 0.69,4.14 2.08,5.625 1.39,1.484 3.1,2.226 5.13,2.226 1.95,0 3.52,-0.625 4.71,-1.875 1.2,-1.25 1.81,-3.183 1.85,-5.8 0.04,-1.485 0.21,-2.442 0.53,-2.871 0.31,-0.43 0.76,-0.645 1.34,-0.645 0.94,0 1.94,0.566 2.99,1.699 1.57,1.641 3.4,5.391 5.51,11.25 l 1.7,4.571" /><path
         id="path96"
         style="fill:#ffffff;fill-opacity:1;fill-rule:nonzero;stroke:none"
         d="m 2081.63,148.629 v 2.578 c 4.53,1.953 7.82,4.481 9.87,7.586 2.05,3.105 3.08,6.281 3.08,9.523 0,0.664 -0.14,1.172 -0.41,1.524 -0.28,0.312 -0.55,0.469 -0.83,0.469 -0.23,0 -0.58,-0.137 -1.05,-0.411 -1.13,-0.664 -2.54,-0.996 -4.22,-0.996 -2.3,0 -4.31,0.899 -6,2.696 -1.7,1.797 -2.55,3.906 -2.55,6.328 0,2.578 0.97,4.844 2.93,6.797 1.95,1.953 4.31,2.929 7.09,2.929 3.36,0 6.23,-1.3 8.61,-3.898 2.38,-2.598 3.57,-6.16 3.57,-10.691 0,-5.586 -1.69,-10.547 -5.06,-14.883 -3.38,-4.336 -8.39,-7.52 -15.03,-9.551" /><path
         id="path98"
         style="fill:#ffffff;fill-opacity:1;fill-rule:nonzero;stroke:none"
         d="m 381.207,105.117 v -2.168 c -2.891,-0.469 -5.469,-2.011 -7.734,-4.6287 -1.641,-1.9531 -4.082,-6.543 -7.325,-13.7695 L 338.785,23.8477 h -1.933 l -27.247,63.164 c -3.281,7.6172 -5.48,12.0899 -6.593,13.4183 -1.114,1.328 -3.211,2.168 -6.297,2.519 v 2.168 h 38.086 v -2.168 h -1.289 c -3.438,0 -5.782,-0.429 -7.032,-1.289 -0.898,-0.586 -1.347,-1.445 -1.347,-2.578 0,-0.7031 0.156,-1.5351 0.469,-2.4922 0.312,-0.957 1.367,-3.5234 3.164,-7.7031 l 16.933,-39.5508 15.703,35.2149 c 1.875,4.2578 3.028,7.1094 3.457,8.5547 0.43,1.4453 0.645,2.6758 0.645,3.6914 0,1.1719 -0.313,2.207 -0.938,3.1054 -0.625,0.8987 -1.543,1.5817 -2.753,2.0507 -1.68,0.664 -3.907,0.996 -6.68,0.996 v 2.168 h 26.074" /><path
         id="path100"
         style="fill:#ffffff;fill-opacity:1;fill-rule:nonzero;stroke:none"
         d="m 407.457,58.9453 c 0,6.2891 -0.344,10.6055 -1.027,12.9492 -0.684,2.3438 -1.746,4.1211 -3.192,5.3321 -0.82,0.7031 -1.914,1.0547 -3.281,1.0547 -2.031,0 -3.691,-0.9961 -4.98,-2.9883 -2.305,-3.4766 -3.457,-8.2422 -3.457,-14.2969 v -2.0508 z m 14.414,-3.9258 h -30.058 c 0.351,-7.2656 2.285,-13.0078 5.8,-17.2265 2.696,-3.2422 5.938,-4.8633 9.727,-4.8633 2.344,0 4.473,0.6562 6.387,1.9609 1.914,1.3086 3.964,3.6641 6.152,7.0625 l 1.992,-1.289 c -2.969,-6.0547 -6.25,-10.3438 -9.844,-12.8633 -3.593,-2.5195 -7.754,-3.7774 -12.48,-3.7774 -8.125,0 -14.277,3.125 -18.457,9.375 -3.36,5.0391 -5.039,11.2891 -5.039,18.75 0,9.1407 2.469,16.4141 7.41,21.8243 4.941,5.4101 10.734,8.1171 17.375,8.1171 5.547,0 10.359,-2.2773 14.441,-6.8281 4.082,-4.5469 6.282,-11.2969 6.594,-20.2422" /><path
         id="path102"
         style="fill:#ffffff;fill-opacity:1;fill-rule:nonzero;stroke:none"
         d="m 451.109,80.4492 v -7.0898 c 2.813,3.0469 5.508,5.2656 8.086,6.6484 2.578,1.3867 5.352,2.082 8.321,2.082 3.554,0 6.504,-0.9882 8.847,-2.957 2.344,-1.9765 3.907,-4.4258 4.688,-7.3555 0.625,-2.2265 0.937,-6.5039 0.937,-12.832 V 37.6172 c 0,-4.2188 0.379,-6.8477 1.141,-7.8828 0.762,-1.0352 2.355,-1.6875 4.777,-1.961 v -2.1093 h -27.715 v 2.1093 c 2.071,0.2735 3.555,1.1329 4.454,2.5782 0.625,0.9765 0.937,3.3984 0.937,7.2656 v 24.375 c 0,4.4922 -0.176,7.3242 -0.527,8.4961 -0.352,1.1719 -0.95,2.0781 -1.789,2.7265 -0.84,0.6407 -1.766,0.9649 -2.782,0.9649 -3.359,0 -6.484,-2.4024 -9.375,-7.207 V 37.6172 c 0,-4.1016 0.379,-6.6992 1.141,-7.793 0.762,-1.0937 2.18,-1.7773 4.25,-2.0508 v -2.1093 h -27.715 v 2.1093 c 2.305,0.2344 3.945,0.9766 4.922,2.2266 0.664,0.8594 0.996,3.3984 0.996,7.6172 v 30.9375 c 0,4.1406 -0.383,6.7187 -1.144,7.7344 -0.762,1.0156 -2.352,1.6797 -4.774,1.9922 v 2.1679 h 22.324" /><path
         id="path104"
         style="fill:#ffffff;fill-opacity:1;fill-rule:nonzero;stroke:none"
         d="M 517.203,100.488 V 80.4492 h 13.008 V 74.6484 H 517.203 V 40.8398 c 0,-3.164 0.145,-5.207 0.438,-6.125 0.293,-0.9179 0.812,-1.6601 1.554,-2.2265 0.743,-0.5664 1.426,-0.8477 2.051,-0.8477 2.539,0 4.942,1.9336 7.207,5.8008 l 1.758,-1.2891 c -3.164,-7.5 -8.301,-11.25 -15.41,-11.25 -3.477,0 -6.418,0.9649 -8.821,2.8985 -2.402,1.9336 -3.933,4.0937 -4.597,6.4765 -0.391,1.3282 -0.586,4.9219 -0.586,10.7813 v 29.5898 h -7.149 v 2.0508 c 4.922,3.4766 9.11,7.1289 12.567,10.9571 3.457,3.8281 6.476,8.1054 9.055,12.8317 h 1.933" /><path
         id="path106"
         style="fill:#ffffff;fill-opacity:1;fill-rule:nonzero;stroke:none"
         d="M 588.336,80.4492 V 37.5586 c 0,-4.1797 0.391,-6.7891 1.172,-7.8242 0.781,-1.0352 2.363,-1.6875 4.746,-1.961 V 25.6641 H 571.93 v 7.3242 c -2.617,-3.125 -5.235,-5.3985 -7.852,-6.8281 -2.617,-1.4258 -5.547,-2.1368 -8.789,-2.1368 -3.086,0 -5.832,0.9454 -8.234,2.8399 -2.403,1.8945 -4.012,4.1133 -4.832,6.6523 -0.821,2.5391 -1.231,6.9727 -1.231,13.3008 v 21.7383 c 0,4.1406 -0.383,6.7187 -1.144,7.7344 -0.762,1.0156 -2.352,1.6797 -4.774,1.9922 v 2.1679 h 22.324 V 43.0078 c 0,-3.9062 0.184,-6.4258 0.555,-7.5586 0.371,-1.1328 0.957,-1.9922 1.758,-2.5781 0.801,-0.5859 1.73,-0.8789 2.785,-0.8789 1.406,0 2.676,0.3711 3.809,1.1133 1.562,1.0156 3.437,3.0664 5.625,6.1523 v 29.2969 c 0,4.1406 -0.383,6.7187 -1.145,7.7344 -0.762,1.0156 -2.351,1.6797 -4.773,1.9922 v 2.1679 h 22.324" /><path
         id="path108"
         style="fill:#ffffff;fill-opacity:1;fill-rule:nonzero;stroke:none"
         d="M 624.898,80.4492 V 68.0273 c 3.633,5.6641 6.817,9.4219 9.551,11.2774 2.735,1.8555 5.371,2.7851 7.91,2.7851 2.188,0 3.934,-0.6718 5.243,-2.0234 1.308,-1.3476 1.964,-3.25 1.964,-5.7109 0,-2.6172 -0.636,-4.6485 -1.906,-6.0938 -1.269,-1.4453 -2.801,-2.1679 -4.597,-2.1679 -2.071,0 -3.868,0.664 -5.391,1.9921 -1.524,1.3282 -2.422,2.0704 -2.695,2.2266 -0.391,0.2344 -0.84,0.3516 -1.348,0.3516 -1.133,0 -2.207,-0.4297 -3.223,-1.2891 -1.601,-1.3281 -2.812,-3.2227 -3.633,-5.6836 -1.25,-3.7891 -1.875,-7.9687 -1.875,-12.5391 V 38.5547 l 0.059,-3.2813 c 0,-2.2265 0.137,-3.6523 0.41,-4.2773 0.469,-1.0547 1.16,-1.8242 2.078,-2.3164 0.918,-0.4883 2.473,-0.7891 4.66,-0.9063 v -2.1093 h -29.589 v 2.1093 c 2.382,0.1954 3.992,0.8516 4.832,1.961 0.84,1.1133 1.261,4.0547 1.261,8.8203 v 30.293 c 0,3.125 -0.156,5.1171 -0.468,5.9765 -0.391,1.0938 -0.957,1.8946 -1.7,2.4024 -0.742,0.5078 -2.05,0.8593 -3.925,1.0547 v 2.1679 h 22.382" /><path
         id="path110"
         style="fill:#ffffff;fill-opacity:1;fill-rule:nonzero;stroke:none"
         d="m 685.25,58.9453 c 0,6.2891 -0.344,10.6055 -1.027,12.9492 -0.684,2.3438 -1.746,4.1211 -3.192,5.3321 -0.82,0.7031 -1.914,1.0547 -3.281,1.0547 -2.031,0 -3.691,-0.9961 -4.98,-2.9883 -2.305,-3.4766 -3.457,-8.2422 -3.457,-14.2969 v -2.0508 z m 14.414,-3.9258 h -30.059 c 0.352,-7.2656 2.286,-13.0078 5.801,-17.2265 2.696,-3.2422 5.938,-4.8633 9.727,-4.8633 2.344,0 4.472,0.6562 6.387,1.9609 1.914,1.3086 3.964,3.6641 6.152,7.0625 l 1.992,-1.289 c -2.969,-6.0547 -6.25,-10.3438 -9.844,-12.8633 -3.593,-2.5195 -7.754,-3.7774 -12.48,-3.7774 -8.125,0 -14.277,3.125 -18.457,9.375 -3.36,5.0391 -5.039,11.2891 -5.039,18.75 0,9.1407 2.469,16.4141 7.41,21.8243 4.941,5.4101 10.734,8.1171 17.375,8.1171 5.547,0 10.359,-2.2773 14.441,-6.8281 4.082,-4.5469 6.282,-11.2969 6.594,-20.2422" /><path
         id="path112"
         style="fill:#ffffff;fill-opacity:1;fill-rule:nonzero;stroke:none"
         d="M 812.574,106.934 V 79.3945 h -2.285 c -1.719,7.1875 -4.922,12.6953 -9.609,16.5235 -4.688,3.8281 -10,5.742 -15.938,5.742 -4.961,0 -9.512,-1.426 -13.652,-4.2772 -4.141,-2.8515 -7.168,-6.582 -9.082,-11.1914 -2.461,-5.8984 -3.692,-12.4609 -3.692,-19.6875 0,-7.1094 0.899,-13.582 2.696,-19.4258 1.797,-5.8398 4.609,-10.2539 8.437,-13.2383 3.828,-2.9921 8.789,-4.4843 14.883,-4.4843 5,0 9.578,1.0937 13.738,3.2812 4.16,2.1875 8.547,5.9571 13.157,11.3086 v -6.8555 c -4.454,-4.6484 -9.094,-8.0195 -13.918,-10.1093 -4.825,-2.0899 -10.457,-3.1328 -16.903,-3.1328 -8.476,0 -16.008,1.6992 -22.59,5.0976 -6.582,3.3985 -11.66,8.2813 -15.234,14.6485 -3.574,6.3671 -5.359,13.1445 -5.359,20.332 0,7.5781 1.98,14.7656 5.945,21.5625 3.965,6.7969 9.316,12.0703 16.055,15.8207 6.738,3.75 13.898,5.625 21.476,5.625 5.586,0 11.485,-1.211 17.696,-3.633 3.593,-1.406 5.878,-2.11 6.855,-2.11 1.25,0 2.332,0.457 3.25,1.375 0.918,0.918 1.516,2.375 1.789,4.368 h 2.285" /><path
         id="path114"
         style="fill:#ffffff;fill-opacity:1;fill-rule:nonzero;stroke:none"
         d="m 853.414,38.0273 v 18.3399 c -4.726,-2.7734 -8.242,-5.7422 -10.547,-8.9063 -1.523,-2.1093 -2.285,-4.2382 -2.285,-6.3867 0,-1.7969 0.645,-3.3789 1.934,-4.7461 0.976,-1.0547 2.343,-1.582 4.101,-1.582 1.953,0 4.219,1.0937 6.797,3.2812 z m 0,-4.2773 c -6.68,-5.8984 -12.676,-8.8477 -17.988,-8.8477 -3.125,0 -5.723,1.0235 -7.793,3.0743 -2.07,2.0507 -3.106,4.6211 -3.106,7.707 0,4.1797 1.797,7.9414 5.391,11.2812 3.594,3.336 11.426,7.7813 23.496,13.3282 v 5.5078 c 0,4.1406 -0.226,6.7461 -0.676,7.8242 -0.449,1.0703 -1.297,2.0078 -2.547,2.8086 -1.25,0.8008 -2.656,1.2031 -4.218,1.2031 -2.539,0 -4.629,-0.5664 -6.27,-1.6992 -1.015,-0.7031 -1.523,-1.5234 -1.523,-2.4609 0,-0.8203 0.547,-1.836 1.64,-3.0469 1.485,-1.6797 2.227,-3.3008 2.227,-4.8633 0,-1.9141 -0.715,-3.5469 -2.141,-4.8945 -1.426,-1.3477 -3.289,-2.0196 -5.593,-2.0196 -2.461,0 -4.524,0.7422 -6.184,2.2266 -1.66,1.4844 -2.488,3.2227 -2.488,5.2149 0,2.8125 1.113,5.496 3.339,8.0546 2.227,2.5625 5.333,4.5235 9.317,5.8907 3.984,1.3672 8.125,2.0507 12.422,2.0507 5.195,0 9.304,-1.1054 12.332,-3.3125 3.027,-2.207 4.992,-4.5976 5.89,-7.1757 0.547,-1.6407 0.821,-5.4102 0.821,-11.3086 V 39.0234 c 0,-2.5 0.097,-4.0742 0.293,-4.7187 0.195,-0.6445 0.488,-1.1211 0.879,-1.4336 0.39,-0.3125 0.839,-0.4688 1.347,-0.4688 1.016,0 2.051,0.7227 3.106,2.168 l 1.758,-1.4062 c -1.954,-2.8907 -3.977,-4.9922 -6.067,-6.3008 -2.09,-1.3086 -4.461,-1.961 -7.117,-1.961 -3.125,0 -5.566,0.7305 -7.324,2.1954 -1.758,1.4648 -2.832,3.6836 -3.223,6.6523" /><path
         id="path116"
         style="fill:#ffffff;fill-opacity:1;fill-rule:nonzero;stroke:none"
         d="M 904.391,37.1484 C 907.75,32.3828 911.344,30 915.172,30 c 2.109,0 3.848,1.1133 5.215,3.3398 2.031,3.2813 3.047,9.5313 3.047,18.75 0,9.4532 -1.114,15.918 -3.34,19.3946 -1.485,2.3047 -3.477,3.457 -5.977,3.457 -3.945,0 -7.187,-2.8516 -9.726,-8.5547 z m 0,-5.9179 V 10.8398 c 0,-2.81246 0.222,-4.72652 0.672,-5.74214 0.449,-1.01563 1.144,-1.75782 2.082,-2.22657 0.937,-0.46875 2.773,-0.70312 5.507,-0.70312 V 0 h -31.23 v 2.16797 c 2.422,0.07812 4.219,0.76172 5.391,2.05078 0.781,0.89844 1.171,3.22266 1.171,6.97265 v 57.832 c 0,3.8672 -0.449,6.336 -1.347,7.4102 -0.899,1.0742 -2.637,1.6914 -5.215,1.8477 v 2.1679 h 22.969 v -7.207 c 1.914,2.8125 3.867,4.8437 5.859,6.0937 2.852,1.836 5.957,2.7539 9.316,2.7539 4.024,0 7.684,-1.2695 10.985,-3.8085 3.301,-2.5391 5.812,-6.0469 7.531,-10.5196 1.719,-4.4687 2.578,-9.2851 2.578,-14.4414 0,-5.5469 -0.89,-10.6172 -2.668,-15.207 -1.777,-4.5899 -4.355,-8.086 -7.734,-10.4844 -3.379,-2.4062 -7.137,-3.6055 -11.278,-3.6055 -3.007,0 -5.82,0.6641 -8.437,1.9922 -1.953,1.0157 -4.004,2.7539 -6.152,5.2149" /><path
         id="path118"
         style="fill:#ffffff;fill-opacity:1;fill-rule:nonzero;stroke:none"
         d="m 963.102,106.992 c 2.539,0 4.687,-0.89 6.445,-2.668 1.758,-1.777 2.637,-3.914 2.637,-6.4138 0,-2.5 -0.891,-4.6289 -2.668,-6.3868 -1.778,-1.7578 -3.914,-2.6367 -6.414,-2.6367 -2.5,0 -4.629,0.8789 -6.387,2.6367 -1.758,1.7579 -2.637,3.8868 -2.637,6.3868 0,2.4998 0.879,4.6368 2.637,6.4138 1.758,1.778 3.887,2.668 6.387,2.668 z m 8.203,-26.5428 V 37.0313 c 0,-3.8672 0.449,-6.3399 1.347,-7.4141 0.899,-1.0703 2.657,-1.6875 5.274,-1.8438 v -2.1093 h -29.59 v 2.1093 c 2.422,0.0782 4.219,0.7813 5.391,2.1094 0.781,0.8985 1.171,3.2813 1.171,7.1485 v 31.9921 c 0,3.8672 -0.449,6.336 -1.347,7.4102 -0.899,1.0742 -2.637,1.6914 -5.215,1.8477 v 2.1679 h 22.969" /><path
         id="path120"
         style="fill:#ffffff;fill-opacity:1;fill-rule:nonzero;stroke:none"
         d="M 1005,100.488 V 80.4492 h 13 v -5.8008 h -13 V 40.8398 c 0,-3.164 0.14,-5.207 0.43,-6.125 0.3,-0.9179 0.82,-1.6601 1.56,-2.2265 0.74,-0.5664 1.42,-0.8477 2.05,-0.8477 2.54,0 4.94,1.9336 7.21,5.8008 l 1.75,-1.2891 c -3.16,-7.5 -8.3,-11.25 -15.41,-11.25 -3.473,0 -6.414,0.9649 -8.817,2.8985 -2.402,1.9336 -3.933,4.0937 -4.597,6.4765 -0.391,1.3282 -0.586,4.9219 -0.586,10.7813 v 29.5898 h -7.149 v 2.0508 c 4.922,3.4766 9.11,7.1289 12.567,10.9571 3.457,3.8281 6.472,8.1054 9.052,12.8317 h 1.94" /><path
         id="path122"
         style="fill:#ffffff;fill-opacity:1;fill-rule:nonzero;stroke:none"
         d="m 1053.45,38.0273 v 18.3399 c -4.72,-2.7734 -8.24,-5.7422 -10.54,-8.9063 -1.53,-2.1093 -2.29,-4.2382 -2.29,-6.3867 0,-1.7969 0.64,-3.3789 1.93,-4.7461 0.98,-1.0547 2.35,-1.582 4.11,-1.582 1.95,0 4.21,1.0937 6.79,3.2812 z m 0,-4.2773 c -6.68,-5.8984 -12.67,-8.8477 -17.99,-8.8477 -3.12,0 -5.72,1.0235 -7.79,3.0743 -2.07,2.0507 -3.1,4.6211 -3.1,7.707 0,4.1797 1.79,7.9414 5.39,11.2812 3.59,3.336 11.42,7.7813 23.49,13.3282 v 5.5078 c 0,4.1406 -0.22,6.7461 -0.67,7.8242 -0.45,1.0703 -1.3,2.0078 -2.55,2.8086 -1.25,0.8008 -2.66,1.2031 -4.22,1.2031 -2.54,0 -4.63,-0.5664 -6.27,-1.6992 -1.01,-0.7031 -1.52,-1.5234 -1.52,-2.4609 0,-0.8203 0.54,-1.836 1.64,-3.0469 1.48,-1.6797 2.22,-3.3008 2.22,-4.8633 0,-1.9141 -0.71,-3.5469 -2.13,-4.8945 -1.43,-1.3477 -3.29,-2.0196 -5.6,-2.0196 -2.46,0 -4.52,0.7422 -6.18,2.2266 -1.66,1.4844 -2.49,3.2227 -2.49,5.2149 0,2.8125 1.11,5.496 3.34,8.0546 2.23,2.5625 5.33,4.5235 9.31,5.8907 3.99,1.3672 8.13,2.0507 12.43,2.0507 5.19,0 9.3,-1.1054 12.33,-3.3125 3.03,-2.207 4.99,-4.5976 5.89,-7.1757 0.55,-1.6407 0.82,-5.4102 0.82,-11.3086 V 39.0234 c 0,-2.5 0.1,-4.0742 0.29,-4.7187 0.2,-0.6445 0.49,-1.1211 0.88,-1.4336 0.39,-0.3125 0.84,-0.4688 1.35,-0.4688 1.01,0 2.05,0.7227 3.1,2.168 l 1.76,-1.4062 c -1.95,-2.8907 -3.97,-4.9922 -6.06,-6.3008 -2.09,-1.3086 -4.46,-1.961 -7.12,-1.961 -3.13,0 -5.57,0.7305 -7.33,2.1954 -1.75,1.4648 -2.83,3.6836 -3.22,6.6523" /><path
         id="path124"
         style="fill:#ffffff;fill-opacity:1;fill-rule:nonzero;stroke:none"
         d="M 1104.66,105.117 V 37.0313 c 0,-3.8672 0.45,-6.3399 1.35,-7.4141 0.9,-1.0703 2.66,-1.6875 5.27,-1.8438 v -2.1093 h -29.59 v 2.1093 c 2.43,0.0782 4.22,0.7813 5.39,2.1094 0.79,0.8985 1.18,3.2813 1.18,7.1485 V 93.75 c 0,3.8281 -0.45,6.277 -1.35,7.352 -0.9,1.074 -2.64,1.691 -5.22,1.847 v 2.168 h 22.97" /><path
         id="path126"
         style="fill:#ffffff;fill-opacity:1;fill-rule:nonzero;stroke:none"
         d="m 1178.55,58.9453 c 0,6.2891 -0.34,10.6055 -1.03,12.9492 -0.68,2.3438 -1.74,4.1211 -3.19,5.3321 -0.82,0.7031 -1.91,1.0547 -3.28,1.0547 -2.03,0 -3.69,-0.9961 -4.98,-2.9883 -2.31,-3.4766 -3.46,-8.2422 -3.46,-14.2969 v -2.0508 z m 14.41,-3.9258 h -30.05 c 0.35,-7.2656 2.28,-13.0078 5.8,-17.2265 2.69,-3.2422 5.93,-4.8633 9.72,-4.8633 2.35,0 4.48,0.6562 6.39,1.9609 1.91,1.3086 3.96,3.6641 6.15,7.0625 l 1.99,-1.289 c -2.96,-6.0547 -6.25,-10.3438 -9.84,-12.8633 -3.59,-2.5195 -7.75,-3.7774 -12.48,-3.7774 -8.13,0 -14.28,3.125 -18.46,9.375 -3.36,5.0391 -5.04,11.2891 -5.04,18.75 0,9.1407 2.47,16.4141 7.42,21.8243 4.94,5.4101 10.73,8.1171 17.37,8.1171 5.55,0 10.36,-2.2773 14.44,-6.8281 4.08,-4.5469 6.28,-11.2969 6.59,-20.2422" /><path
         id="path128"
         style="fill:#ffffff;fill-opacity:1;fill-rule:nonzero;stroke:none"
         d="M 1258.18,100.547 V 66.2109 c 1.29,-0.0781 2.26,-0.1171 2.93,-0.1171 4.76,0 8.44,1.414 11.01,4.246 2.58,2.8321 3.87,7.2188 3.87,13.1563 0,5.8984 -1.29,10.2148 -3.87,12.9492 -2.57,2.7344 -6.42,4.1017 -11.54,4.1017 z m 0,-38.9064 V 39.6094 c 0,-4.2969 0.26,-7.0039 0.79,-8.1172 0.53,-1.1094 1.46,-2 2.81,-2.6641 1.35,-0.664 3.82,-0.9961 7.41,-0.9961 v -2.1679 h -40.37 v 2.1679 c 3.68,0 6.17,0.3399 7.47,1.0235 1.31,0.6875 2.23,1.5742 2.76,2.6679 0.53,1.0938 0.79,3.7891 0.79,8.086 v 51.5625 c 0,4.2969 -0.26,7 -0.79,8.1133 -0.53,1.1128 -1.46,2.0038 -2.79,2.6678 -1.32,0.664 -3.8,0.996 -7.44,0.996 v 2.168 h 34.63 c 11.41,0 19.59,-2.031 24.55,-6.0936 4.96,-4.0625 7.44,-9.1406 7.44,-15.2343 0,-5.1563 -1.6,-9.5703 -4.8,-13.2422 -3.2,-3.6719 -7.62,-6.1719 -13.24,-7.5 -3.79,-0.9375 -10.2,-1.4063 -19.22,-1.4063" /><path
         id="path130"
         style="fill:#ffffff;fill-opacity:1;fill-rule:nonzero;stroke:none"
         d="M 1325.85,80.4492 V 68.0273 c 3.64,5.6641 6.82,9.4219 9.56,11.2774 2.73,1.8555 5.37,2.7851 7.91,2.7851 2.18,0 3.93,-0.6718 5.24,-2.0234 1.31,-1.3476 1.96,-3.25 1.96,-5.7109 0,-2.6172 -0.63,-4.6485 -1.9,-6.0938 -1.27,-1.4453 -2.8,-2.1679 -4.6,-2.1679 -2.07,0 -3.87,0.664 -5.39,1.9921 -1.53,1.3282 -2.42,2.0704 -2.7,2.2266 -0.39,0.2344 -0.84,0.3516 -1.35,0.3516 -1.13,0 -2.2,-0.4297 -3.22,-1.2891 -1.6,-1.3281 -2.81,-3.2227 -3.63,-5.6836 -1.25,-3.7891 -1.88,-7.9687 -1.88,-12.5391 V 38.5547 l 0.06,-3.2813 c 0,-2.2265 0.14,-3.6523 0.41,-4.2773 0.47,-1.0547 1.17,-1.8242 2.08,-2.3164 0.92,-0.4883 2.47,-0.7891 4.66,-0.9063 v -2.1093 h -29.59 v 2.1093 c 2.38,0.1954 4,0.8516 4.84,1.961 0.84,1.1133 1.26,4.0547 1.26,8.8203 v 30.293 c 0,3.125 -0.16,5.1171 -0.47,5.9765 -0.39,1.0938 -0.96,1.8946 -1.7,2.4024 -0.74,0.5078 -2.05,0.8593 -3.93,1.0547 v 2.1679 h 22.38" /><path
         id="path132"
         style="fill:#ffffff;fill-opacity:1;fill-rule:nonzero;stroke:none"
         d="m 1369.57,106.992 c 2.53,0 4.68,-0.89 6.44,-2.668 1.76,-1.777 2.64,-3.914 2.64,-6.4138 0,-2.5 -0.89,-4.6289 -2.67,-6.3868 -1.78,-1.7578 -3.91,-2.6367 -6.41,-2.6367 -2.5,0 -4.63,0.8789 -6.39,2.6367 -1.76,1.7579 -2.64,3.8868 -2.64,6.3868 0,2.4998 0.88,4.6368 2.64,6.4138 1.76,1.778 3.89,2.668 6.39,2.668 z m 8.2,-26.5428 V 37.0313 c 0,-3.8672 0.45,-6.3399 1.35,-7.4141 0.89,-1.0703 2.65,-1.6875 5.27,-1.8438 v -2.1093 h -29.59 v 2.1093 c 2.42,0.0782 4.22,0.7813 5.39,2.1094 0.78,0.8985 1.17,3.2813 1.17,7.1485 v 31.9921 c 0,3.8672 -0.45,6.336 -1.35,7.4102 -0.89,1.0742 -2.63,1.6914 -5.21,1.8477 v 2.1679 h 22.97" /><path
         id="path134"
         style="fill:#ffffff;fill-opacity:1;fill-rule:nonzero;stroke:none"
         d="m 1414.45,24.0234 -18.46,42.4805 c -2.23,5.1172 -3.96,8.3594 -5.21,9.7266 -0.9,1.0156 -2.23,1.6992 -3.99,2.0508 v 2.1679 h 29.12 v -2.1679 c -1.83,0 -3.08,-0.3321 -3.75,-0.9961 -0.93,-0.8594 -1.4,-1.875 -1.4,-3.0469 0,-1.4453 0.86,-4.1602 2.57,-8.1445 l 9.03,-20.5665 7.21,17.754 c 2.07,5.0781 3.1,8.6718 3.1,10.7812 0,1.2109 -0.44,2.1953 -1.32,2.957 -0.88,0.7618 -2.43,1.1836 -4.66,1.2618 v 2.1679 h 17.93 v -2.1679 c -1.71,-0.2344 -3.12,-0.879 -4.21,-1.9336 -1.1,-1.0547 -2.74,-4.1602 -4.93,-9.3164 L 1417.2,24.0234 h -2.75" /><path
         id="path136"
         style="fill:#ffffff;fill-opacity:1;fill-rule:nonzero;stroke:none"
         d="m 1479.96,38.0273 v 18.3399 c -4.73,-2.7734 -8.25,-5.7422 -10.55,-8.9063 -1.52,-2.1093 -2.29,-4.2382 -2.29,-6.3867 0,-1.7969 0.65,-3.3789 1.94,-4.7461 0.97,-1.0547 2.34,-1.582 4.1,-1.582 1.95,0 4.22,1.0937 6.8,3.2812 z m 0,-4.2773 c -6.68,-5.8984 -12.68,-8.8477 -17.99,-8.8477 -3.13,0 -5.72,1.0235 -7.8,3.0743 -2.07,2.0507 -3.1,4.6211 -3.1,7.707 0,4.1797 1.8,7.9414 5.39,11.2812 3.59,3.336 11.43,7.7813 23.5,13.3282 v 5.5078 c 0,4.1406 -0.23,6.7461 -0.68,7.8242 -0.45,1.0703 -1.3,2.0078 -2.55,2.8086 -1.25,0.8008 -2.65,1.2031 -4.22,1.2031 -2.53,0 -4.62,-0.5664 -6.26,-1.6992 -1.02,-0.7031 -1.53,-1.5234 -1.53,-2.4609 0,-0.8203 0.55,-1.836 1.64,-3.0469 1.49,-1.6797 2.23,-3.3008 2.23,-4.8633 0,-1.9141 -0.71,-3.5469 -2.14,-4.8945 -1.43,-1.3477 -3.29,-2.0196 -5.6,-2.0196 -2.46,0 -4.52,0.7422 -6.18,2.2266 -1.66,1.4844 -2.49,3.2227 -2.49,5.2149 0,2.8125 1.12,5.496 3.34,8.0546 2.23,2.5625 5.33,4.5235 9.32,5.8907 3.98,1.3672 8.12,2.0507 12.42,2.0507 5.2,0 9.31,-1.1054 12.33,-3.3125 3.03,-2.207 4.99,-4.5976 5.89,-7.1757 0.55,-1.6407 0.82,-5.4102 0.82,-11.3086 V 39.0234 c 0,-2.5 0.1,-4.0742 0.3,-4.7187 0.19,-0.6445 0.48,-1.1211 0.88,-1.4336 0.39,-0.3125 0.84,-0.4688 1.34,-0.4688 1.02,0 2.05,0.7227 3.11,2.168 l 1.76,-1.4062 c -1.96,-2.8907 -3.98,-4.9922 -6.07,-6.3008 -2.09,-1.3086 -4.46,-1.961 -7.12,-1.961 -3.12,0 -5.56,0.7305 -7.32,2.1954 -1.76,1.4648 -2.83,3.6836 -3.22,6.6523" /><path
         id="path138"
         style="fill:#ffffff;fill-opacity:1;fill-rule:nonzero;stroke:none"
         d="M 1531.46,100.488 V 80.4492 h 13.01 v -5.8008 h -13.01 V 40.8398 c 0,-3.164 0.15,-5.207 0.44,-6.125 0.29,-0.9179 0.81,-1.6601 1.55,-2.2265 0.74,-0.5664 1.43,-0.8477 2.05,-0.8477 2.54,0 4.94,1.9336 7.21,5.8008 l 1.76,-1.2891 c -3.17,-7.5 -8.3,-11.25 -15.41,-11.25 -3.48,0 -6.42,0.9649 -8.82,2.8985 -2.4,1.9336 -3.94,4.0937 -4.6,6.4765 -0.39,1.3282 -0.59,4.9219 -0.59,10.7813 v 29.5898 h -7.14 v 2.0508 c 4.92,3.4766 9.11,7.1289 12.56,10.9571 3.46,3.8281 6.48,8.1054 9.06,12.8317 h 1.93" /><path
         id="path140"
         style="fill:#ffffff;fill-opacity:1;fill-rule:nonzero;stroke:none"
         d="m 1581.67,58.9453 c 0,6.2891 -0.34,10.6055 -1.02,12.9492 -0.68,2.3438 -1.75,4.1211 -3.19,5.3321 -0.82,0.7031 -1.92,1.0547 -3.29,1.0547 -2.03,0 -3.69,-0.9961 -4.98,-2.9883 -2.3,-3.4766 -3.45,-8.2422 -3.45,-14.2969 v -2.0508 z m 14.42,-3.9258 h -30.06 c 0.35,-7.2656 2.29,-13.0078 5.8,-17.2265 2.7,-3.2422 5.94,-4.8633 9.73,-4.8633 2.34,0 4.47,0.6562 6.38,1.9609 1.92,1.3086 3.97,3.6641 6.16,7.0625 l 1.99,-1.289 c -2.97,-6.0547 -6.25,-10.3438 -9.84,-12.8633 -3.6,-2.5195 -7.76,-3.7774 -12.49,-3.7774 -8.12,0 -14.27,3.125 -18.45,9.375 -3.36,5.0391 -5.04,11.2891 -5.04,18.75 0,9.1407 2.47,16.4141 7.41,21.8243 4.94,5.4101 10.73,8.1171 17.37,8.1171 5.55,0 10.37,-2.2773 14.45,-6.8281 4.08,-4.5469 6.28,-11.2969 6.59,-20.2422" /><path
         id="path142"
         style="fill:#ffffff;fill-opacity:1;fill-rule:nonzero;stroke:none"
         d="M 1660.78,100.605 V 38.6133 c 0,-3.2813 0.15,-5.293 0.47,-6.0352 0.31,-0.7422 0.83,-1.3086 1.58,-1.6992 1.05,-0.5859 2.58,-0.8789 4.57,-0.8789 6.52,0 11.5,2.2266 14.94,6.6797 4.69,6.0156 7.03,15.3516 7.03,28.0078 0,10.1953 -1.6,18.3398 -4.8,24.4336 -2.54,4.7656 -5.81,8.0078 -9.79,9.7266 -2.81,1.2113 -7.48,1.7973 -14,1.7573 z m -30.3,-74.9409 v 2.1679 h 2.64 c 2.3,0 4.07,0.3594 5.3,1.086 1.23,0.7187 2.14,1.707 2.73,2.957 0.35,0.8203 0.52,3.2813 0.52,7.3828 v 52.2656 c 0,4.0625 -0.21,6.6016 -0.64,7.6172 -0.43,1.0154 -1.3,1.9064 -2.61,2.6644 -1.31,0.761 -3.07,1.144 -5.3,1.144 h -2.64 v 2.168 h 35.57 c 9.49,0 17.13,-1.289 22.91,-3.867 7.07,-3.1641 12.43,-7.9492 16.08,-14.3555 3.66,-6.4062 5.48,-13.6523 5.48,-21.7382 0,-5.586 -0.9,-10.7344 -2.69,-15.4415 -1.8,-4.707 -4.12,-8.5898 -6.98,-11.6601 -2.85,-3.0664 -6.14,-5.5274 -9.87,-7.3828 -3.73,-1.8555 -8.29,-3.2891 -13.68,-4.3047 -2.38,-0.4688 -6.13,-0.7031 -11.25,-0.7031 h -35.57" /><path
         id="path144"
         style="fill:#ffffff;fill-opacity:1;fill-rule:nonzero;stroke:none"
         d="m 1751.6,58.9453 c 0,6.2891 -0.35,10.6055 -1.03,12.9492 -0.68,2.3438 -1.75,4.1211 -3.19,5.3321 -0.82,0.7031 -1.92,1.0547 -3.28,1.0547 -2.03,0 -3.69,-0.9961 -4.98,-2.9883 -2.31,-3.4766 -3.46,-8.2422 -3.46,-14.2969 v -2.0508 z m 14.41,-3.9258 h -30.06 c 0.35,-7.2656 2.29,-13.0078 5.8,-17.2265 2.7,-3.2422 5.94,-4.8633 9.73,-4.8633 2.34,0 4.47,0.6562 6.39,1.9609 1.91,1.3086 3.96,3.6641 6.15,7.0625 l 1.99,-1.289 c -2.97,-6.0547 -6.25,-10.3438 -9.84,-12.8633 -3.6,-2.5195 -7.76,-3.7774 -12.48,-3.7774 -8.13,0 -14.28,3.125 -18.46,9.375 -3.36,5.0391 -5.04,11.2891 -5.04,18.75 0,9.1407 2.47,16.4141 7.41,21.8243 4.94,5.4101 10.73,8.1171 17.38,8.1171 5.54,0 10.36,-2.2773 14.44,-6.8281 4.08,-4.5469 6.28,-11.2969 6.59,-20.2422" /><path
         id="path146"
         style="fill:#ffffff;fill-opacity:1;fill-rule:nonzero;stroke:none"
         d="m 1794.08,69.7266 v -24.375 c 0,-4.961 0.11,-8.125 0.35,-9.4922 0.39,-2.3047 1.33,-4.1719 2.81,-5.5977 1.49,-1.4219 3.38,-2.1367 5.68,-2.1367 2,0 3.71,0.5664 5.13,1.6992 1.43,1.1328 2.62,3.3789 3.58,6.7383 0.95,3.3594 1.43,9.4141 1.43,18.1641 0,8.3984 -1.05,14.1601 -3.16,17.2851 -1.53,2.2656 -3.58,3.3985 -6.15,3.3985 -3.36,0 -6.59,-1.8946 -9.67,-5.6836 z m 0,35.3904 V 74.9414 c 4.61,4.7656 9.65,7.1484 15.11,7.1484 3.75,0 7.29,-1.1054 10.61,-3.3125 3.32,-2.207 5.92,-5.3398 7.79,-9.4023 1.88,-4.0625 2.82,-8.75 2.82,-14.0625 0,-5.9766 -1.2,-11.4062 -3.58,-16.2891 -2.38,-4.8828 -5.57,-8.6015 -9.55,-11.164 -3.98,-2.5586 -8.53,-3.836 -13.65,-3.836 -2.97,0 -5.61,0.4688 -7.91,1.4063 -2.31,0.9375 -4.57,2.4609 -6.8,4.5703 l -9.08,-5.918 h -1.99 V 93.75 c 0,3.1641 -0.14,5.1172 -0.41,5.8594 -0.39,1.0936 -1.01,1.9026 -1.85,2.4336 -0.84,0.523 -2.26,0.828 -4.25,0.906 v 2.168 h 22.74" /><path
         id="path148"
         style="fill:#ffffff;fill-opacity:1;fill-rule:nonzero;stroke:none"
         d="M 1861.34,100.488 V 80.4492 h 13.01 v -5.8008 h -13.01 V 40.8398 c 0,-3.164 0.15,-5.207 0.44,-6.125 0.3,-0.9179 0.81,-1.6601 1.55,-2.2265 0.75,-0.5664 1.43,-0.8477 2.06,-0.8477 2.53,0 4.94,1.9336 7.2,5.8008 l 1.76,-1.2891 c -3.16,-7.5 -8.3,-11.25 -15.41,-11.25 -3.48,0 -6.42,0.9649 -8.82,2.8985 -2.4,1.9336 -3.93,4.0937 -4.6,6.4765 -0.39,1.3282 -0.58,4.9219 -0.58,10.7813 v 29.5898 h -7.15 v 2.0508 c 4.92,3.4766 9.11,7.1289 12.57,10.9571 3.45,3.8281 6.47,8.1054 9.05,12.8317 h 1.93" /></g></g></svg>